<svg width="151" height="27" viewBox="0 0 151 27" fill="none" xmlns="http://www.w3.org/2000/svg">
<path d="M14.876 17.372C14.876 18.3427 14.624 19.2573 14.12 20.116C13.6347 20.956 12.9067 21.656 11.936 22.216C10.984 22.7573 9.85467 23.0747 8.548 23.168V25.436H6.756V23.14C4.88933 22.972 3.38667 22.412 2.248 21.46C1.10933 20.4893 0.521333 19.1827 0.484 17.54H4.684C4.796 18.884 5.48667 19.696 6.756 19.976V14.628C5.412 14.292 4.32933 13.956 3.508 13.62C2.68667 13.284 1.97733 12.7427 1.38 11.996C0.782667 11.2493 0.484 10.232 0.484 8.944C0.484 7.32 1.06267 5.99467 2.22 4.968C3.396 3.94133 4.908 3.35333 6.756 3.204V0.935999H8.548V3.204C10.34 3.35333 11.768 3.89467 12.832 4.828C13.9147 5.76133 14.5213 7.04933 14.652 8.692H10.424C10.368 8.15067 10.172 7.684 9.836 7.292C9.51867 6.88133 9.08933 6.592 8.548 6.424V11.716C9.948 12.0707 11.0493 12.416 11.852 12.752C12.6733 13.0693 13.3827 13.6013 13.98 14.348C14.5773 15.076 14.876 16.084 14.876 17.372ZM4.572 8.748C4.572 9.364 4.75867 9.868 5.132 10.26C5.50533 10.6333 6.04667 10.9413 6.756 11.184V6.34C6.084 6.43333 5.552 6.68533 5.16 7.096C4.768 7.50667 4.572 8.05733 4.572 8.748ZM8.548 20.032C9.25733 19.9013 9.808 19.612 10.2 19.164C10.6107 18.716 10.816 18.1747 10.816 17.54C10.816 16.924 10.62 16.4293 10.228 16.056C9.836 15.6827 9.276 15.3747 8.548 15.132V20.032ZM18.8603 7.964C18.9536 6.09733 19.607 4.66 20.8203 3.652C22.0523 2.62533 23.667 2.112 25.6643 2.112C27.027 2.112 28.1936 2.35467 29.1643 2.84C30.135 3.30667 30.863 3.95067 31.3483 4.772C31.8523 5.57467 32.1043 6.48933 32.1043 7.516C32.1043 8.692 31.7963 9.69067 31.1803 10.512C30.583 11.3147 29.8643 11.856 29.0243 12.136V12.248C30.107 12.584 30.947 13.1813 31.5443 14.04C32.1603 14.8987 32.4683 16 32.4683 17.344C32.4683 18.464 32.207 19.4627 31.6843 20.34C31.1803 21.2173 30.4243 21.908 29.4163 22.412C28.427 22.8973 27.2323 23.14 25.8323 23.14C23.723 23.14 22.0056 22.608 20.6803 21.544C19.355 20.48 18.655 18.912 18.5803 16.84H22.3883C22.4256 17.7547 22.7336 18.492 23.3123 19.052C23.9096 19.5933 24.7216 19.864 25.7483 19.864C26.7003 19.864 27.4283 19.6027 27.9323 19.08C28.455 18.5387 28.7163 17.848 28.7163 17.008C28.7163 15.888 28.3616 15.0853 27.6523 14.6C26.943 14.1147 25.8416 13.872 24.3483 13.872H23.5363V10.652H24.3483C26.999 10.652 28.3243 9.76533 28.3243 7.992C28.3243 7.18933 28.0816 6.564 27.5963 6.116C27.1296 5.668 26.4483 5.444 25.5523 5.444C24.675 5.444 23.9936 5.68667 23.5083 6.172C23.0416 6.63867 22.771 7.236 22.6963 7.964H18.8603ZM49.286 5.976H40.214V10.764C40.606 10.2787 41.166 9.88667 41.894 9.588C42.622 9.27067 43.3967 9.112 44.218 9.112C45.7114 9.112 46.934 9.43867 47.886 10.092C48.838 10.7453 49.5287 11.5853 49.958 12.612C50.3874 13.62 50.602 14.7027 50.602 15.86C50.602 18.0067 49.986 19.7333 48.754 21.04C47.5407 22.3467 45.8047 23 43.546 23C41.418 23 39.7194 22.468 38.45 21.404C37.1807 20.34 36.462 18.9493 36.294 17.232H40.102C40.27 17.9787 40.6434 18.576 41.222 19.024C41.8194 19.472 42.5754 19.696 43.49 19.696C44.5914 19.696 45.422 19.3507 45.982 18.66C46.542 17.9693 46.822 17.0547 46.822 15.916C46.822 14.7587 46.5327 13.8813 45.954 13.284C45.394 12.668 44.5634 12.36 43.462 12.36C42.678 12.36 42.0247 12.556 41.502 12.948C40.9794 13.34 40.606 13.8627 40.382 14.516H36.63V2.532H49.286V5.976ZM58.3176 18.884L55.0416 26.752H52.5216L54.3416 18.884H58.3176ZM60.7509 7.964C60.8443 6.09733 61.4976 4.66 62.7109 3.652C63.9429 2.62533 65.5576 2.112 67.5549 2.112C68.9176 2.112 70.0843 2.35467 71.0549 2.84C72.0256 3.30667 72.7536 3.95067 73.2389 4.772C73.7429 5.57467 73.9949 6.48933 73.9949 7.516C73.9949 8.692 73.6869 9.69067 73.0709 10.512C72.4736 11.3147 71.7549 11.856 70.9149 12.136V12.248C71.9976 12.584 72.8376 13.1813 73.4349 14.04C74.0509 14.8987 74.3589 16 74.3589 17.344C74.3589 18.464 74.0976 19.4627 73.5749 20.34C73.0709 21.2173 72.3149 21.908 71.3069 22.412C70.3176 22.8973 69.1229 23.14 67.7229 23.14C65.6136 23.14 63.8963 22.608 62.5709 21.544C61.2456 20.48 60.5456 18.912 60.4709 16.84H64.2789C64.3163 17.7547 64.6243 18.492 65.2029 19.052C65.8003 19.5933 66.6123 19.864 67.6389 19.864C68.5909 19.864 69.3189 19.6027 69.8229 19.08C70.3456 18.5387 70.6069 17.848 70.6069 17.008C70.6069 15.888 70.2523 15.0853 69.5429 14.6C68.8336 14.1147 67.7323 13.872 66.2389 13.872H65.4269V10.652H66.2389C68.8896 10.652 70.2149 9.76533 70.2149 7.992C70.2149 7.18933 69.9723 6.564 69.4869 6.116C69.0203 5.668 68.3389 5.444 67.4429 5.444C66.5656 5.444 65.8843 5.68667 65.3989 6.172C64.9323 6.63867 64.6616 7.236 64.5869 7.964H60.7509ZM91.1767 5.976H82.1047V10.764C82.4967 10.2787 83.0567 9.88667 83.7847 9.588C84.5127 9.27067 85.2873 9.112 86.1087 9.112C87.602 9.112 88.8247 9.43867 89.7767 10.092C90.7287 10.7453 91.4193 11.5853 91.8487 12.612C92.278 13.62 92.4927 14.7027 92.4927 15.86C92.4927 18.0067 91.8767 19.7333 90.6447 21.04C89.4313 22.3467 87.6953 23 85.4367 23C83.3087 23 81.61 22.468 80.3407 21.404C79.0713 20.34 78.3527 18.9493 78.1847 17.232H81.9927C82.1607 17.9787 82.534 18.576 83.1127 19.024C83.71 19.472 84.466 19.696 85.3807 19.696C86.482 19.696 87.3127 19.3507 87.8727 18.66C88.4327 17.9693 88.7127 17.0547 88.7127 15.916C88.7127 14.7587 88.4233 13.8813 87.8447 13.284C87.2847 12.668 86.454 12.36 85.3527 12.36C84.5687 12.36 83.9153 12.556 83.3927 12.948C82.87 13.34 82.4967 13.8627 82.2727 14.516H78.5207V2.532H91.1767V5.976ZM96.7082 18.576C98.5002 17.0827 99.9282 15.8413 100.992 14.852C102.056 13.844 102.943 12.7987 103.652 11.716C104.362 10.6333 104.716 9.56933 104.716 8.524C104.716 7.572 104.492 6.82533 104.044 6.284C103.596 5.74267 102.906 5.472 101.972 5.472C101.039 5.472 100.32 5.78933 99.8162 6.424C99.3122 7.04 99.0509 7.88933 99.0322 8.972H95.2242C95.2989 6.732 95.9615 5.03333 97.2122 3.876C98.4815 2.71867 100.087 2.14 102.028 2.14C104.156 2.14 105.79 2.70933 106.928 3.848C108.067 4.968 108.636 6.452 108.636 8.3C108.636 9.756 108.244 11.1467 107.46 12.472C106.676 13.7973 105.78 14.9547 104.772 15.944C103.764 16.9147 102.448 18.0907 100.824 19.472H109.084V22.72H95.2522V19.808L96.7082 18.576ZM113.738 23.196C113.029 23.196 112.441 22.9813 111.974 22.552C111.526 22.104 111.302 21.5533 111.302 20.9C111.302 20.2467 111.526 19.7053 111.974 19.276C112.441 18.828 113.029 18.604 113.738 18.604C114.429 18.604 114.998 18.828 115.446 19.276C115.894 19.7053 116.118 20.2467 116.118 20.9C116.118 21.5533 115.894 22.104 115.446 22.552C114.998 22.9813 114.429 23.196 113.738 23.196ZM118.828 12.528C118.828 9.29867 119.406 6.76933 120.564 4.94C121.74 3.11067 123.681 2.196 126.388 2.196C129.094 2.196 131.026 3.11067 132.184 4.94C133.36 6.76933 133.948 9.29867 133.948 12.528C133.948 15.776 133.36 18.324 132.184 20.172C131.026 22.02 129.094 22.944 126.388 22.944C123.681 22.944 121.74 22.02 120.564 20.172C119.406 18.324 118.828 15.776 118.828 12.528ZM130.084 12.528C130.084 11.1467 129.99 9.98933 129.804 9.056C129.636 8.104 129.281 7.32933 128.74 6.732C128.217 6.13467 127.433 5.836 126.388 5.836C125.342 5.836 124.549 6.13467 124.008 6.732C123.485 7.32933 123.13 8.104 122.944 9.056C122.776 9.98933 122.692 11.1467 122.692 12.528C122.692 13.9467 122.776 15.1413 122.944 16.112C123.112 17.064 123.466 17.8387 124.008 18.436C124.549 19.0147 125.342 19.304 126.388 19.304C127.433 19.304 128.226 19.0147 128.768 18.436C129.309 17.8387 129.664 17.064 129.832 16.112C130 15.1413 130.084 13.9467 130.084 12.528ZM138.161 18.576C139.953 17.0827 141.381 15.8413 142.445 14.852C143.509 13.844 144.396 12.7987 145.105 11.716C145.815 10.6333 146.169 9.56933 146.169 8.524C146.169 7.572 145.945 6.82533 145.497 6.284C145.049 5.74267 144.359 5.472 143.425 5.472C142.492 5.472 141.773 5.78933 141.269 6.424C140.765 7.04 140.504 7.88933 140.485 8.972H136.677C136.752 6.732 137.415 5.03333 138.665 3.876C139.935 2.71867 141.54 2.14 143.481 2.14C145.609 2.14 147.243 2.70933 148.381 3.848C149.52 4.968 150.089 6.452 150.089 8.3C150.089 9.756 149.697 11.1467 148.913 12.472C148.129 13.7973 147.233 14.9547 146.225 15.944C145.217 16.9147 143.901 18.0907 142.277 19.472H150.537V22.72H136.705V19.808L138.161 18.576Z" fill="#E4E4E4"/>
</svg>
