<svg width="69" height="72" viewBox="0 0 69 72" fill="none" xmlns="http://www.w3.org/2000/svg">
<path d="M3.37241 63.1201V69.0837C3.37241 69.8789 2.73143 70.5199 1.93621 70.5199C1.14098 70.5199 0.5 69.8789 0.5 69.0837V63.1201C0.5 53.367 8.40798 45.4714 18.1487 45.4714H50.2768C60.03 45.4714 67.9255 53.3794 67.9255 63.1201V69.0837C67.9255 69.8789 67.2845 70.5199 66.4893 70.5199C65.6941 70.5199 65.0531 69.8789 65.0531 69.0837V63.1201C65.0531 54.9572 58.4398 48.3438 50.2768 48.3438H18.1487C9.98575 48.3438 3.37241 54.9572 3.37241 63.1201Z" fill="white" stroke="#6C43DD"/>
<path d="M34.2063 35.6425C24.5174 35.6425 16.635 27.7601 16.635 18.0713C16.635 8.3824 24.5174 0.5 34.2063 0.5C43.8951 0.5 51.7775 8.3824 51.7775 18.0713C51.7775 27.7601 43.8951 35.6425 34.2063 35.6425ZM34.2063 3.37241C26.0949 3.37241 19.5074 9.95994 19.5074 18.0713C19.5074 26.1826 26.0949 32.7701 34.2063 32.7701C42.3176 32.7701 48.9051 26.1826 48.9051 18.0713C48.9051 9.95994 42.3176 3.37241 34.2063 3.37241Z" fill="white" stroke="#6C43DD"/>
</svg>
