<svg width="162" height="47" viewBox="0 0 162 47" fill="none" xmlns="http://www.w3.org/2000/svg">
<path d="M100.304 10.152L94.328 27H89.192L83.216 10.152H87.584L91.76 22.872L95.96 10.152H100.304ZM108.043 10.152V27H103.939V10.152H108.043ZM119.033 27.168C117.801 27.168 116.697 26.968 115.721 26.568C114.745 26.168 113.961 25.576 113.369 24.792C112.793 24.008 112.489 23.064 112.457 21.96H116.825C116.889 22.584 117.105 23.064 117.473 23.4C117.841 23.72 118.321 23.88 118.913 23.88C119.521 23.88 120.001 23.744 120.353 23.472C120.705 23.184 120.881 22.792 120.881 22.296C120.881 21.88 120.737 21.536 120.449 21.264C120.177 20.992 119.833 20.768 119.417 20.592C119.017 20.416 118.441 20.216 117.689 19.992C116.601 19.656 115.713 19.32 115.025 18.984C114.337 18.648 113.745 18.152 113.249 17.496C112.753 16.84 112.505 15.984 112.505 14.928C112.505 13.36 113.073 12.136 114.209 11.256C115.345 10.36 116.825 9.912 118.649 9.912C120.505 9.912 122.001 10.36 123.137 11.256C124.273 12.136 124.881 13.368 124.961 14.952H120.521C120.489 14.408 120.289 13.984 119.921 13.68C119.553 13.36 119.081 13.2 118.505 13.2C118.009 13.2 117.609 13.336 117.305 13.608C117.001 13.864 116.849 14.24 116.849 14.736C116.849 15.28 117.105 15.704 117.617 16.008C118.129 16.312 118.929 16.64 120.017 16.992C121.105 17.36 121.985 17.712 122.657 18.048C123.345 18.384 123.937 18.872 124.433 19.512C124.929 20.152 125.177 20.976 125.177 21.984C125.177 22.944 124.929 23.816 124.433 24.6C123.953 25.384 123.249 26.008 122.321 26.472C121.393 26.936 120.297 27.168 119.033 27.168ZM141.743 10.152V13.44H137.279V27H133.175V13.44H128.711V10.152H141.743ZM156.211 24.024H149.923L148.915 27H144.619L150.715 10.152H155.467L161.563 27H157.219L156.211 24.024ZM155.155 20.856L153.067 14.688L151.003 20.856H155.155Z" fill="black"/>
<path d="M88.112 33.692C88.416 33.74 88.692 33.864 88.94 34.064C89.196 34.264 89.396 34.512 89.54 34.808C89.692 35.104 89.768 35.42 89.768 35.756C89.768 36.18 89.66 36.564 89.444 36.908C89.228 37.244 88.912 37.512 88.496 37.712C88.088 37.904 87.604 38 87.044 38H83.924V29.636H86.924C87.492 29.636 87.976 29.732 88.376 29.924C88.776 30.108 89.076 30.36 89.276 30.68C89.476 31 89.576 31.36 89.576 31.76C89.576 32.256 89.44 32.668 89.168 32.996C88.904 33.316 88.552 33.548 88.112 33.692ZM85.016 33.248H86.852C87.364 33.248 87.76 33.128 88.04 32.888C88.32 32.648 88.46 32.316 88.46 31.892C88.46 31.468 88.32 31.136 88.04 30.896C87.76 30.656 87.356 30.536 86.828 30.536H85.016V33.248ZM86.948 37.1C87.492 37.1 87.916 36.972 88.22 36.716C88.524 36.46 88.676 36.104 88.676 35.648C88.676 35.184 88.516 34.82 88.196 34.556C87.876 34.284 87.448 34.148 86.912 34.148H85.016V37.1H86.948ZM97.0074 38L95.0154 34.58H93.6954V38H92.6034V29.636H95.3034C95.9354 29.636 96.4674 29.744 96.8994 29.96C97.3394 30.176 97.6674 30.468 97.8834 30.836C98.0994 31.204 98.2074 31.624 98.2074 32.096C98.2074 32.672 98.0394 33.18 97.7034 33.62C97.3754 34.06 96.8794 34.352 96.2154 34.496L98.3154 38H97.0074ZM93.6954 33.704H95.3034C95.8954 33.704 96.3394 33.56 96.6354 33.272C96.9314 32.976 97.0794 32.584 97.0794 32.096C97.0794 31.6 96.9314 31.216 96.6354 30.944C96.3474 30.672 95.9034 30.536 95.3034 30.536H93.6954V33.704ZM105.016 38.084C104.24 38.084 103.532 37.904 102.892 37.544C102.252 37.176 101.744 36.668 101.368 36.02C101 35.364 100.816 34.628 100.816 33.812C100.816 32.996 101 32.264 101.368 31.616C101.744 30.96 102.252 30.452 102.892 30.092C103.532 29.724 104.24 29.54 105.016 29.54C105.8 29.54 106.512 29.724 107.152 30.092C107.792 30.452 108.296 30.956 108.664 31.604C109.032 32.252 109.216 32.988 109.216 33.812C109.216 34.636 109.032 35.372 108.664 36.02C108.296 36.668 107.792 37.176 107.152 37.544C106.512 37.904 105.8 38.084 105.016 38.084ZM105.016 37.136C105.6 37.136 106.124 37 106.588 36.728C107.06 36.456 107.428 36.068 107.692 35.564C107.964 35.06 108.1 34.476 108.1 33.812C108.1 33.14 107.964 32.556 107.692 32.06C107.428 31.556 107.064 31.168 106.6 30.896C106.136 30.624 105.608 30.488 105.016 30.488C104.424 30.488 103.896 30.624 103.432 30.896C102.968 31.168 102.6 31.556 102.328 32.06C102.064 32.556 101.932 33.14 101.932 33.812C101.932 34.476 102.064 35.06 102.328 35.564C102.6 36.068 102.968 36.456 103.432 36.728C103.904 37 104.432 37.136 105.016 37.136ZM116.514 38L113.07 34.184V38H111.978V29.636H113.07V33.512L116.526 29.636H117.906L114.114 33.824L117.942 38H116.514ZM121.573 30.524V33.32H124.621V34.22H121.573V37.1H124.981V38H120.481V29.624H124.981V30.524H121.573ZM132.358 38L130.366 34.58H129.046V38H127.954V29.636H130.654C131.286 29.636 131.818 29.744 132.25 29.96C132.69 30.176 133.018 30.468 133.234 30.836C133.45 31.204 133.558 31.624 133.558 32.096C133.558 32.672 133.39 33.18 133.054 33.62C132.726 34.06 132.23 34.352 131.566 34.496L133.666 38H132.358ZM129.046 33.704H130.654C131.246 33.704 131.69 33.56 131.986 33.272C132.282 32.976 132.43 32.584 132.43 32.096C132.43 31.6 132.282 31.216 131.986 30.944C131.698 30.672 131.254 30.536 130.654 30.536H129.046V33.704ZM141.518 36.14H137.87L137.198 38H136.046L139.07 29.684H140.33L143.342 38H142.19L141.518 36.14ZM141.206 35.252L139.694 31.028L138.182 35.252H141.206ZM152.316 32.06C152.084 31.572 151.748 31.196 151.308 30.932C150.868 30.66 150.356 30.524 149.772 30.524C149.188 30.524 148.66 30.66 148.188 30.932C147.724 31.196 147.356 31.58 147.084 32.084C146.82 32.58 146.688 33.156 146.688 33.812C146.688 34.468 146.82 35.044 147.084 35.54C147.356 36.036 147.724 36.42 148.188 36.692C148.66 36.956 149.188 37.088 149.772 37.088C150.588 37.088 151.26 36.844 151.788 36.356C152.316 35.868 152.624 35.208 152.712 34.376H149.376V33.488H153.876V34.328C153.812 35.016 153.596 35.648 153.228 36.224C152.86 36.792 152.376 37.244 151.776 37.58C151.176 37.908 150.508 38.072 149.772 38.072C148.996 38.072 148.288 37.892 147.648 37.532C147.008 37.164 146.5 36.656 146.124 36.008C145.756 35.36 145.572 34.628 145.572 33.812C145.572 32.996 145.756 32.264 146.124 31.616C146.5 30.96 147.008 30.452 147.648 30.092C148.288 29.724 148.996 29.54 149.772 29.54C150.66 29.54 151.444 29.76 152.124 30.2C152.812 30.64 153.312 31.26 153.624 32.06H152.316ZM157.732 30.524V33.32H160.78V34.22H157.732V37.1H161.14V38H156.64V29.624H161.14V30.524H157.732Z" fill="black"/>
<path fill-rule="evenodd" clip-rule="evenodd" d="M30.6982 41.2837L42.7658 23.4999L51.0225 11.2206H58.2207L61.1847 6.77466L62.0315 5.50439C56.3153 5.50439 50.5991 5.50439 45.0946 5.50439L28.1577 30.4864L20.1126 18.4188C13.3378 18.4188 6.77477 18.6305 0 18.6305L4.02252 24.3467H19.2658L30.6982 41.2837Z" fill="#5627D8"/>
<path fill-rule="evenodd" clip-rule="evenodd" d="M51.8693 12.7026C53.563 15.8783 54.6216 19.4774 54.6216 23.4999C54.6216 36.4143 44.036 46.9999 31.1216 46.9999C18.8423 46.9999 8.68014 37.6846 7.62158 25.6171H18.6306L30.6982 43.8243L51.6576 12.7026H51.8693Z" fill="#5627D8"/>
<path fill-rule="evenodd" clip-rule="evenodd" d="M31.1215 0C35.9909 0 40.6486 1.48198 44.4594 4.23423H44.2477L28.1576 27.9459L20.7477 17.1486H20.1125C16.3017 17.1486 12.2792 17.1486 8.46838 17.1486C11.2206 7.1982 20.3242 0 31.1215 0ZM10.3738 15.6667C13.5495 15.6667 16.9369 15.6667 20.1125 15.6667H21.5945L28.1576 25.6171L42.3423 4.44595C38.9549 2.32883 35.1441 1.27027 31.1215 1.27027C21.8062 1.27027 13.5495 7.1982 10.3738 15.6667Z" fill="#5627D8"/>
</svg>
