<svg width="33" height="52" viewBox="0 0 33 52" fill="none" xmlns="http://www.w3.org/2000/svg">
<path d="M20.6441 11.9851C23.9495 11.9851 26.6374 9.2972 26.6374 5.99333C26.6374 2.68945 23.9495 0 20.6441 0C17.3418 0 14.6508 2.68945 14.6508 5.99333C14.6523 9.29565 17.3418 11.9851 20.6441 11.9851ZM20.6441 1.5555C23.0893 1.5555 25.0819 3.54498 25.0819 5.99333C25.0819 8.44168 23.0924 10.4296 20.6441 10.4296C18.1988 10.4296 16.2063 8.44168 16.2063 5.99333C16.2063 3.54498 18.1957 1.5555 20.6441 1.5555Z" fill="#5627D8"/>
<path d="M29.8043 20.0892C29.2599 20.0923 28.7077 20.2355 28.2208 20.5061L14.3878 10.8807C12.7903 9.76696 10.4477 10.0718 9.18619 11.5496L2.77443 19.0439C0.853395 21.2916 -0.128123 24.1553 0.0134269 27.1076L0.960725 47.1907C1.06339 49.4041 2.8771 51.137 5.09057 51.137L5.28812 51.1307C7.4347 51.0312 9.12708 49.3372 9.22663 47.1907L10.2035 26.5337C10.219 26.1946 10.3497 25.8664 10.5675 25.6097L16.2419 18.9724L25.6216 25.5024C25.9264 25.7155 26.2733 25.8368 26.6311 25.913V50.3561C26.6311 50.7854 26.9795 51.1338 27.4088 51.1338C27.8366 51.1338 28.1866 50.7854 28.1866 50.3561V25.8026C28.7092 25.6066 29.1774 25.2737 29.5041 24.8024C30.1745 23.8411 30.1481 22.6045 29.5445 21.6805C29.6223 21.6712 29.6923 21.6401 29.7716 21.6432C30.1916 21.6494 30.582 21.8174 30.8745 22.1192C31.1654 22.4163 31.3194 22.8114 31.3131 23.2298C31.3069 23.6575 31.6491 24.0122 32.0784 24.02C32.0831 24.02 32.0862 24.02 32.0909 24.02C32.514 24.02 32.8624 23.6793 32.8686 23.2547C32.8826 22.4209 32.57 21.6338 31.9898 21.035C31.4174 20.4377 30.6365 20.1017 29.8043 20.0892ZM28.2364 23.9158C27.8599 24.4571 27.0604 24.6002 26.5191 24.2237L16.5624 17.2925C16.2373 17.0654 15.7877 17.1229 15.5264 17.4247L9.39463 24.5971C8.95131 25.115 8.68999 25.7761 8.65732 26.4574L7.68203 47.1144C7.61825 48.4522 6.56051 49.5115 5.22123 49.5752L5.09679 49.5783C3.71551 49.5783 2.58466 48.4973 2.51933 47.1144L1.57048 27.0299C1.44915 24.4757 2.29845 21.9994 3.96128 20.0535L10.3715 12.5575C10.8195 12.0349 11.4712 11.7347 12.1603 11.7347C12.6425 11.7347 13.1045 11.8824 13.4996 12.1562L27.9253 22.1985C28.4884 22.5858 28.6252 23.3573 28.2364 23.9158Z" fill="#5627D8"/>
</svg>
