<svg width="56" height="65" viewBox="0 0 56 65" fill="none" xmlns="http://www.w3.org/2000/svg">
<path d="M54.5325 40.325H44.4512C44.0552 40.325 43.7311 40.649 43.7311 41.045V41.7651H39.4106C39.0146 41.7651 38.6905 42.0892 38.6905 42.4852V43.2053H33.4339L32.7714 41.4195C32.7714 41.4195 32.7498 41.3691 32.7426 41.3475C31.7273 39.3096 30.0495 37.6318 28.0188 36.6093L24.3248 34.7587C23.9863 34.5931 23.6407 34.449 23.2878 34.3266C32.1017 33.5993 39.0578 26.1968 39.0578 17.1957C39.0578 7.71215 31.3456 0 21.8621 0C12.3785 0 4.66634 7.71215 4.66634 17.1957C4.66634 25.5415 10.6431 32.5192 18.5424 34.0674C17.88 34.2186 17.2247 34.449 16.6054 34.7587L10.7439 37.6966C10.0814 38.0279 9.57734 38.6183 9.35411 39.324C8.90766 40.7282 9.33971 42.226 10.3622 43.2053H8.06515C6.29374 43.2053 4.85356 44.6455 4.85356 46.4745C4.85356 47.1298 5.05519 47.7347 5.39363 48.2459H5.1848C3.41338 48.2459 1.97321 49.6861 1.97321 51.4575C1.97321 52.4656 2.44846 53.3586 3.18295 53.949C2.44846 54.5395 1.97321 55.4324 1.97321 56.4405V56.527C1.97321 58.2984 3.41338 59.7385 5.1848 59.7385H7.56109C7.21545 60.2642 7.01383 60.8979 7.01383 61.582C7.01383 63.3606 8.454 64.808 10.2254 64.808H25.8297C27.5508 64.808 29.171 64.1383 30.3879 62.9213L31.036 62.2733H38.6977V62.6477C38.6977 63.0438 39.0218 63.3678 39.4178 63.3678H43.7383V64.0879C43.7383 64.4839 44.0624 64.808 44.4584 64.808H54.5397C54.9357 64.808 55.2598 64.4839 55.2598 64.0879V41.045C55.2598 40.649 54.9357 40.325 54.5397 40.325H54.5325ZM6.10651 17.1957C6.10651 8.51145 13.1778 1.44018 21.8621 1.44018C30.5463 1.44018 37.6176 8.51145 37.6176 17.1957C37.6176 25.88 30.5463 32.9513 21.8621 32.9513C13.1778 32.9513 6.10651 25.88 6.10651 17.1957ZM18.5352 42.4204L22.1357 44.3575C22.1501 48.5412 23.3382 51.1047 25.016 52.6385V54.7123C25.016 56.6926 23.5615 58.3056 21.7756 58.3056C19.9898 58.3056 18.5352 56.6926 18.5352 54.7123V42.4276V42.4204ZM17.0951 43.7454C16.663 43.4573 16.159 43.2845 15.6117 43.2413L17.0951 42.4996V43.7526V43.7454ZM6.29374 46.4169C6.29374 45.4376 7.08583 44.6455 8.06515 44.6455H15.3236C16.303 44.6455 17.0951 45.4376 17.0951 46.4745C17.0951 47.4538 16.303 48.2459 15.3236 48.2459H8.06515C7.08583 48.2459 6.29374 47.4538 6.29374 46.4169ZM3.41338 51.4575C3.41338 50.4782 4.20548 49.6861 5.1848 49.6861H15.3236C16.303 49.6861 17.0951 50.4782 17.0951 51.4575C17.0951 52.4368 16.303 53.2289 15.3236 53.2289H5.1848C4.20548 53.2289 3.41338 52.4368 3.41338 51.4575ZM3.41338 56.527C3.37018 55.5188 4.17668 54.6691 5.1848 54.6691H15.3236C17.6351 54.6331 17.6351 58.3344 15.3236 58.2984H5.1848C4.20548 58.2984 3.41338 57.5063 3.41338 56.527ZM8.454 61.5244C8.454 60.545 9.2461 59.7457 10.2254 59.7457H15.3236C16.303 59.7457 17.0951 60.545 17.0951 61.582C17.0951 62.5613 16.303 63.3606 15.3236 63.3606H10.2254C9.2461 63.3606 8.454 62.5613 8.454 61.5244ZM30.7335 60.8331C30.5391 60.8331 30.3591 60.9123 30.2223 61.0419L29.3654 61.8988C28.4221 62.8421 27.1619 63.3678 25.8225 63.3678H17.9808C18.3264 62.8421 18.528 62.2085 18.528 61.5244C18.528 60.509 18.0456 59.6089 17.3183 59.0185C17.6855 58.7232 17.9808 58.3632 18.1896 57.9383C19.0465 59.0401 20.3355 59.7385 21.7684 59.7385C24.3464 59.7385 26.449 57.4775 26.449 54.7051V53.6466C27.81 54.3811 29.3222 54.6763 30.7407 54.7267C30.7479 54.7267 30.7551 54.7267 30.7695 54.7267C31.1584 54.7267 31.4752 54.4243 31.4896 54.0354C31.504 53.6394 31.1944 53.301 30.7984 53.2866C25.8369 53.1065 23.475 50.0462 23.5687 43.9398C23.5687 43.6734 23.4246 43.4213 23.187 43.2917L18.2544 40.6346C18.0456 40.5266 17.8008 40.5194 17.5919 40.6274L13.7179 42.5716C13.1634 42.8525 12.4937 42.8597 11.932 42.586C10.8879 42.082 10.3694 40.8722 10.7223 39.7633C10.8303 39.4248 11.0679 39.144 11.3848 38.9856L17.2463 36.0476C19.2553 35.0395 21.6604 35.0395 23.6695 36.0476L27.3635 37.8983C29.1061 38.7696 30.5463 40.2097 31.432 41.9524L32.2529 44.1774C32.3537 44.4583 32.6274 44.6455 32.9298 44.6455H38.6905V60.8331H30.7263H30.7335ZM40.1379 61.9276V43.2053H43.7383V61.9276H40.1379ZM53.8196 63.3678H45.1785V41.7651H53.8196V63.3678Z" fill="#5627D8"/>
<path d="M43.011 17.1957C43.011 22.7476 40.8507 27.9682 36.9335 31.8927C36.2638 32.548 37.3007 33.5777 37.956 32.908C42.1469 28.7027 44.4512 23.122 44.4512 17.1885C44.4512 11.255 42.1469 5.67426 37.956 1.46895C37.3079 0.799265 36.2638 1.83619 36.9335 2.48427C40.8507 6.41596 43.011 11.6366 43.011 17.1813V17.1957Z" fill="#5627D8"/>
<path d="M7.00657 33.2105C7.61864 33.2321 7.97149 32.4112 7.51783 31.9792C3.60055 28.0475 1.44028 22.8268 1.44028 17.2822C1.45468 16.346 -0.0142966 16.346 0.000105209 17.2822C0.000105209 23.2157 2.30439 28.7964 6.4953 33.0017C6.63932 33.1457 6.81934 33.2105 7.00657 33.2105Z" fill="#5627D8"/>
<path d="M22.5821 27.277V25.2319C27.205 24.9007 27.2698 22.0707 27.2698 21.4155C27.2698 20.7602 27.2698 19.572 25.9233 18.2327C24.9655 17.2677 23.5974 16.7781 21.8548 16.7781C18.0167 16.7781 17.8871 14.0778 17.8871 13.5881C17.8871 13.0984 17.9303 10.3909 21.8548 10.3909C25.7792 10.3909 25.8153 13.2569 25.8225 13.5881C25.8225 13.9841 26.1465 14.301 26.5425 14.301C26.9386 14.301 27.2626 13.9769 27.2626 13.5809C27.2626 13.5377 27.1978 9.38278 22.5749 8.98673V7.1073C22.5749 6.71125 22.2508 6.38721 21.8548 6.38721C21.4587 6.38721 21.1347 6.71125 21.1347 7.1073V8.98673C16.5117 9.38278 16.4469 12.832 16.4469 13.5809C16.4469 14.3298 16.4469 15.4243 17.7935 16.7637C18.7512 17.7286 20.1194 18.2183 21.862 18.2183C25.7 18.2183 25.8297 20.9474 25.8297 21.4011C25.8297 21.8547 25.664 23.8206 21.862 23.8206C18.0599 23.8206 17.9015 21.6459 17.8943 21.4083C17.8943 21.0122 17.5702 20.6882 17.1742 20.6882C16.7781 20.6882 16.4541 21.0122 16.4541 21.4083C16.4541 21.4443 16.5189 24.8935 21.1419 25.2247V27.2698C21.1419 27.6658 21.4659 27.9899 21.862 27.9899C22.258 27.9899 22.5821 27.6658 22.5821 27.2698V27.277Z" fill="#5627D8"/>
</svg>
