<svg width="89" height="84" viewBox="0 0 89 84" fill="none" xmlns="http://www.w3.org/2000/svg">
<path d="M85.6746 79.8822H3.32544V75.2314H8.47623H80.5238H85.6746V79.8822Z" stroke="#212121"/>
<path d="M11.8016 71.4064V70.9937H77.1985V71.4064H11.8016Z" stroke="#212121"/>
<path d="M66.8969 61.5174V37.0889H71.5476V61.5174H66.8969Z" stroke="#212121"/>
<path d="M53.4759 17.9579L53.4762 17.9496V17.9413C53.4762 13.427 49.7206 9.67142 45.2063 9.67142C40.6921 9.67142 36.9365 13.427 36.9365 17.9413C36.9365 22.4555 40.6921 26.2111 45.2063 26.2111C49.7351 26.2111 53.3264 22.444 53.4759 17.9579ZM76.6171 27.6127H13.5235L45.2051 4.15482L76.6171 27.6127Z" stroke="#212121"/>
<path d="M40.762 17.9415C40.762 15.5335 42.7984 13.4971 45.2064 13.4971C47.5877 13.4971 49.5155 15.5082 49.6508 17.9546C49.6435 20.3569 47.61 22.386 45.2064 22.386C42.7984 22.386 40.762 20.3495 40.762 17.9415Z" stroke="#212121"/>
<path d="M49.9445 61.5174V37.0889H54.5953V61.5174H49.9445Z" stroke="#212121"/>
<path d="M16.0397 61.5174V37.0889H20.6905V61.5174H16.0397Z" stroke="#212121"/>
<path d="M32.9921 61.5174V37.0889H37.6429V61.5174H32.9921Z" stroke="#212121"/>
<path d="M45.5047 3.13051L45.207 2.90914L44.9088 3.12991L11.7104 27.7109L10.4924 28.6127H12.0079H78.2635H79.7738L78.5618 27.7115L45.5047 3.13051ZM45.2063 0.622721L85.3686 30.4381H5.04408L45.2063 0.622721Z" fill="white" stroke="#212121"/>
<path d="M8.47619 72.4061H8.97619V71.9061V68.168H80.0238V71.9061V72.4061H80.5238H88.5V82.7077H0.5V72.4061H8.47619ZM11.3016 69.9934H10.8016V70.4934V71.9061V72.4061H11.3016H77.6984H78.1984V71.9061V70.4934V69.9934H77.6984H11.3016ZM86.6746 74.7315V74.2315H86.1746H80.5238H8.47619H2.8254H2.3254V74.7315V80.3823V80.8823H2.8254H86.1746H86.6746V80.3823V74.7315Z" fill="white" stroke="#212121"/>
<path d="M15.5396 36.0891H15.0396V36.5891V62.0176V62.5176H15.5396H21.1904H21.6904V62.0176V36.5891V36.0891H21.1904H15.5396ZM13.2142 34.2637H23.5158V64.343H13.2142V34.2637Z" fill="white" stroke="#212121"/>
<path d="M32.492 36.0891H31.992V36.5891V62.0176V62.5176H32.492H38.1428H38.6428V62.0176V36.5891V36.0891H38.1428H32.492ZM30.1666 34.2637H40.4682V64.343H30.1666V34.2637Z" fill="white" stroke="#212121"/>
<path d="M49.4444 36.0891H48.9444V36.5891V62.0176V62.5176H49.4444H55.0952H55.5952V62.0176V36.5891V36.0891H55.0952H49.4444ZM47.119 34.2637H57.4206V64.343H47.119V34.2637Z" fill="white" stroke="#212121"/>
<path d="M66.3968 36.0891H65.8968V36.5891V62.0176V62.5176H66.3968H72.0476H72.5476V62.0176V36.5891V36.0891H72.0476H66.3968ZM64.0714 34.2637H74.373V64.343H64.0714V34.2637Z" fill="white" stroke="#212121"/>
<path d="M50.6501 17.9675L50.6508 17.9544V17.9412C50.6508 14.981 48.1666 12.4968 45.2064 12.4968C42.2461 12.4968 39.7619 14.981 39.7619 17.9412C39.7619 20.9015 42.2461 23.3857 45.2064 23.3857C48.189 23.3857 50.4967 20.8834 50.6501 17.9675ZM37.9365 17.9412C37.9365 13.9793 41.2444 10.6714 45.2064 10.6714C49.151 10.6714 52.339 13.9632 52.4762 17.9495C52.4716 21.9078 49.1655 25.2111 45.2064 25.2111C41.2444 25.2111 37.9365 21.9032 37.9365 17.9412Z" fill="white" stroke="#212121"/>
</svg>
