<svg width="48" height="60" viewBox="0 0 48 60" fill="none" xmlns="http://www.w3.org/2000/svg">
<path d="M22.11 36.006C21.576 35.954 21.066 36.34 21.006 36.89L19.006 54.89C18.973 55.192 19.078 55.493 19.293 55.707L23.293 59.707C23.488 59.902 23.744 60 24 60C24.256 60 24.512 59.902 24.707 59.707L28.707 55.707C28.922 55.492 29.027 55.191 28.994 54.89L26.994 36.89C26.933 36.342 26.444 35.949 25.89 36.006C25.341 36.068 24.946 36.562 25.006 37.11L26.953 54.632L24 57.586L21.047 54.633L22.994 37.111C23.055 36.562 22.659 36.067 22.11 36.006Z" fill="#5627D8"/>
<path d="M4.27 36.551C1.875 37.591 0 40.451 0 43.063V59C0 59.553 0.447 60 1 60C1.553 60 2 59.553 2 59V43.063C2 41.25 3.404 39.108 5.066 38.385L19.398 32.154C19.764 31.995 20 31.635 20 31.236V27C20 26.619 19.766 26.264 19.425 26.095C19.403 26.084 17.154 24.921 15.721 19.768C15.678 19.614 15.599 19.472 15.491 19.356C15.479 19.343 14.358 18.101 14.05 16.535C13.842 15.509 14.049 14.503 14.213 14.361C14.678 14.205 14.961 13.734 14.881 13.25C14.651 11.854 14.372 7.747 15.833 5.556C17.703 2.749 21.847 2 24 2C28.826 2 30.188 4.462 30.236 4.555C30.371 4.826 30.621 5.023 30.917 5.088C34.509 5.882 33.142 13.14 33.127 13.213C33.026 13.707 33.283 14.186 33.761 14.347C33.952 14.502 34.159 15.508 33.95 16.539C33.64 18.106 32.519 19.345 32.51 19.355C32.402 19.471 32.322 19.613 32.28 19.767C30.846 24.92 28.598 26.083 28.593 26.086C28.232 26.247 28 26.605 28 27V31.236C28 31.634 28.236 31.995 28.602 32.153L42.934 38.384C44.596 39.107 46 41.249 46 43.063V58H43C42.447 58 42 58.447 42 59C42 59.553 42.447 60 43 60H47C47.553 60 48 59.553 48 59V43.063C48 40.452 46.125 37.591 43.73 36.551L30 30.581V27.557C30.968 26.86 32.857 24.996 34.146 20.52C34.553 20.028 35.571 18.659 35.913 16.931C36.158 15.719 36.108 13.893 35.2 12.954C35.509 10.872 36.064 4.583 31.768 3.246C31.082 2.278 28.942 0 24 0C20.831 0 16.355 1.164 14.168 4.445C12.383 7.123 12.642 11.33 12.821 12.933C11.893 13.865 11.841 15.707 12.087 16.925C12.43 18.657 13.447 20.026 13.855 20.519C15.143 24.995 17.033 26.859 18.001 27.556V30.58L4.27 36.551Z" fill="#5627D8"/>
<path d="M38.29 58.29C38.109 58.479 38 58.74 38 59C38 59.26 38.109 59.5199 38.29 59.7099C38.479 59.8899 38.729 60 39 60C39.26 60 39.52 59.8899 39.71 59.7099C39.89 59.5199 40 59.26 40 59C40 58.74 39.89 58.479 39.71 58.29C39.34 57.92 38.66 57.92 38.29 58.29Z" fill="#5627D8"/>
</svg>
