<svg width="23" height="23" viewBox="0 0 23 23" fill="none" xmlns="http://www.w3.org/2000/svg">
<circle cx="11.5" cy="11.5" r="10.5" stroke="#868686" stroke-width="2"/>
<path fill-rule="evenodd" clip-rule="evenodd" d="M12.0754 8.53339C11.5321 8.4346 11.0115 8.795 10.9127 9.33838C10.8139 9.88175 11.1743 10.4023 11.7177 10.5011L14.0271 10.921L10.3934 14.0703L7.08478 10.4308C6.90589 10.234 6.656 10.1166 6.39034 10.1045C6.12468 10.0924 5.86515 10.1866 5.66911 10.3663L0.910493 14.7284C0.503374 15.1016 0.475872 15.7341 0.849064 16.1413C1.22226 16.5484 1.85482 16.5759 2.26194 16.2027L6.28036 12.5191L9.57041 16.1382C9.9357 16.54 10.5549 16.5769 10.9653 16.2212L15.2586 12.5003V14.2759C15.2586 14.8282 15.7063 15.2759 16.2586 15.2759C16.8109 15.2759 17.2586 14.8282 17.2586 14.2759V10.3158V10.3104C17.2586 10.0565 17.1632 9.82163 17.0037 9.64338C16.8479 9.4692 16.6442 9.36223 16.4298 9.3251L12.0754 8.53339Z" fill="#868686"/>
</svg>
