<svg width="50" height="62" viewBox="0 0 50 62" fill="none" xmlns="http://www.w3.org/2000/svg">
<path d="M23.4816 35.8736V35.0636C22.8498 35.0209 22.2478 34.7794 21.7616 34.3736C21.5519 34.1844 21.3847 33.9528 21.2709 33.6943C21.1572 33.4358 21.0995 33.156 21.1016 32.8736H22.5716C22.5831 33.1331 22.6777 33.382 22.8416 33.5836C23.0126 33.7935 23.2481 33.9412 23.5116 34.0036V31.8136L23.3116 31.7536L23.1016 31.6936C22.6023 31.5554 22.1407 31.3058 21.7516 30.9636C21.5959 30.8085 21.4745 30.6224 21.3953 30.4174C21.3161 30.2124 21.2807 29.9931 21.2916 29.7736C21.2778 29.5075 21.3257 29.2417 21.4315 28.9972C21.5373 28.7526 21.6982 28.5358 21.9016 28.3636C22.3592 27.9932 22.9235 27.7794 23.5116 27.7536V26.9336H24.2416V27.7636C24.8264 27.7936 25.385 28.0149 25.8316 28.3936C26.0306 28.569 26.1903 28.7843 26.3006 29.0255C26.4109 29.2667 26.4691 29.5284 26.4716 29.7936H24.9516C24.9438 29.597 24.8737 29.4079 24.7516 29.2536C24.6224 29.0713 24.4358 28.9375 24.2216 28.8736V30.7636L24.3916 30.8736H24.5616C24.9061 30.9896 25.2405 31.1334 25.5616 31.3036C25.8595 31.4534 26.1168 31.673 26.3116 31.9436C26.5046 32.2407 26.6023 32.5895 26.5916 32.9436C26.5951 33.2968 26.498 33.6436 26.3116 33.9436C26.1101 34.2648 25.8272 34.527 25.4916 34.7036C25.0835 34.9167 24.6319 35.033 24.1716 35.0436V35.8736H23.4816ZM22.7216 29.7036C22.7183 29.8001 22.7352 29.8963 22.7714 29.9859C22.8076 30.0755 22.8622 30.1564 22.9316 30.2236C23.0952 30.3712 23.2852 30.4865 23.4916 30.5636V28.8736C23.2846 28.9038 23.0922 28.9983 22.9416 29.1436C22.8703 29.214 22.814 29.2982 22.7762 29.391C22.7384 29.4838 22.7198 29.5834 22.7216 29.6836V29.7036ZM25.1516 33.1136C25.1581 32.9943 25.1382 32.8751 25.0933 32.7645C25.0483 32.6538 24.9795 32.5545 24.8916 32.4736C24.6905 32.3009 24.4603 32.1655 24.2116 32.0736V34.0036C24.4662 33.981 24.7073 33.8796 24.9016 33.7136C24.9866 33.6352 25.0532 33.539 25.0964 33.4317C25.1396 33.3245 25.1585 33.209 25.1516 33.0936V33.1136Z" fill="#5627D8"/>
<path d="M43.9116 34.2432C43.779 34.2432 43.6518 34.1905 43.5581 34.0968C43.4643 34.003 43.4116 33.8758 43.4116 33.7432V18.6232C43.4116 18.4906 43.4643 18.3634 43.5581 18.2697C43.6518 18.1759 43.779 18.1232 43.9116 18.1232H46.1916L40.7616 13.0532L35.3316 18.1232H37.5216C37.6542 18.1232 37.7814 18.1759 37.8752 18.2697C37.9689 18.3634 38.0216 18.4906 38.0216 18.6232V20.0832C38.0216 20.2158 37.9689 20.343 37.8752 20.4368C37.7814 20.5305 37.6542 20.5832 37.5216 20.5832C37.389 20.5832 37.2618 20.5305 37.1681 20.4368C37.0743 20.343 37.0216 20.2158 37.0216 20.0832V19.0832H34.1016C34.0004 19.084 33.9013 19.054 33.8175 18.9972C33.7337 18.9404 33.669 18.8595 33.6322 18.7652C33.5953 18.6709 33.588 18.5677 33.6111 18.4691C33.6342 18.3705 33.6867 18.2813 33.7616 18.2132L40.4516 11.9532C40.5441 11.8675 40.6655 11.8198 40.7916 11.8198C40.9177 11.8198 41.0392 11.8675 41.1316 11.9532L47.8316 18.2132C47.9065 18.2813 47.959 18.3705 47.9821 18.4691C48.0052 18.5677 47.9979 18.6709 47.961 18.7652C47.9242 18.8595 47.8596 18.9404 47.7758 18.9972C47.6919 19.054 47.5928 19.084 47.4916 19.0832H44.4916V33.7432C44.4926 33.8162 44.4775 33.8885 44.4475 33.955C44.4176 34.0216 44.3734 34.0807 44.3181 34.1284C44.2629 34.176 44.1978 34.211 44.1276 34.2308C44.0574 34.2507 43.9836 34.2549 43.9116 34.2432Z" fill="#5627D8"/>
<path d="M4.3416 44.5634C4.20899 44.5634 4.08182 44.5107 3.98805 44.4169C3.89428 44.3232 3.8416 44.196 3.8416 44.0634V7.26339H0.841602C0.740365 7.26415 0.641285 7.23415 0.557467 7.17737C0.473649 7.12059 0.409041 7.0397 0.37219 6.94541C0.33534 6.85111 0.327982 6.74785 0.351089 6.64928C0.374197 6.55072 0.426682 6.46149 0.501603 6.39339L7.2016 0.133394C7.29406 0.0476462 7.4155 0 7.5416 0C7.6677 0 7.78914 0.0476462 7.8816 0.133394L14.5716 6.39339C14.6465 6.46149 14.699 6.55072 14.7221 6.64928C14.7452 6.74785 14.7379 6.85111 14.701 6.94541C14.6642 7.0397 14.5996 7.12059 14.5157 7.17737C14.4319 7.23415 14.3328 7.26415 14.2316 7.26339H11.2316V19.7734C11.2316 19.906 11.1789 20.0332 11.0852 20.1269C10.9914 20.2207 10.8642 20.2734 10.7316 20.2734C10.599 20.2734 10.4718 20.2207 10.378 20.1269C10.2843 20.0332 10.2316 19.906 10.2316 19.7734V6.77339C10.2316 6.64079 10.2843 6.51361 10.378 6.41984C10.4718 6.32607 10.599 6.27339 10.7316 6.27339H13.0116L7.5816 1.18339L2.1516 6.26339H4.3416C4.47421 6.26339 4.60139 6.31607 4.69516 6.40984C4.78892 6.50361 4.8416 6.63079 4.8416 6.76339V44.0634C4.8416 44.196 4.78892 44.3232 4.69516 44.4169C4.60139 44.5107 4.47421 44.5634 4.3416 44.5634Z" fill="#5627D8"/>
<path d="M23.8216 38.1735C22.4514 38.1735 21.112 37.7673 19.9725 37.0063C18.8331 36.2452 17.9449 35.1635 17.4201 33.8978C16.8953 32.6321 16.7574 31.2392 17.024 29.8952C17.2906 28.5512 17.9496 27.3163 18.9178 26.3468C19.886 25.3772 21.1199 24.7164 22.4635 24.4479C23.8071 24.1793 25.2002 24.3151 26.4667 24.8381C27.7331 25.3611 28.8161 26.2478 29.5788 27.3861C30.3415 28.5244 30.7496 29.8633 30.7516 31.2335C30.7516 33.0724 30.0218 34.8361 28.7225 36.1373C27.4231 37.4385 25.6605 38.1708 23.8216 38.1735ZM23.8216 25.3035C22.6488 25.3035 21.5022 25.6513 20.5271 26.3029C19.5519 26.9545 18.7918 27.8806 18.343 28.9642C17.8942 30.0477 17.7767 31.2401 18.0055 32.3904C18.2344 33.5407 18.7991 34.5973 19.6285 35.4266C20.4578 36.2559 21.5144 36.8207 22.6647 37.0495C23.815 37.2783 25.0073 37.1609 26.0909 36.7121C27.1745 36.2633 28.1006 35.5032 28.7522 34.528C29.4038 33.5528 29.7516 32.4063 29.7516 31.2335C29.749 29.6616 29.1233 28.1548 28.0118 27.0433C26.9003 25.9317 25.3935 25.3061 23.8216 25.3035Z" fill="#5627D8"/>
<path d="M10.5115 42.3534C10.4295 42.3516 10.3493 42.3297 10.2778 42.2896C10.2063 42.2494 10.1457 42.1924 10.1015 42.1234C8.22187 39.2494 7.14786 35.9238 6.9915 32.4934C6.9115 23.1034 15.8515 20.0534 17.9915 19.4934L16.8015 13.2834C16.7883 13.2114 16.7911 13.1375 16.8096 13.0667C16.8282 12.996 16.862 12.9302 16.9087 12.8739C16.9554 12.8176 17.0139 12.7723 17.08 12.7411C17.1462 12.7099 17.2184 12.6936 17.2915 12.6934H30.2915C30.368 12.6938 30.4434 12.7118 30.5119 12.7459C30.5803 12.7801 30.64 12.8295 30.6864 12.8903C30.7328 12.9512 30.7646 13.0219 30.7793 13.0969C30.7941 13.172 30.7914 13.2495 30.7715 13.3234L29.1015 19.5334C35.8415 21.4034 40.4815 26.6334 40.4815 32.5334C40.4815 32.666 40.4288 32.7931 40.3351 32.8869C40.2413 32.9807 40.1141 33.0334 39.9815 33.0334C39.8489 33.0334 39.7217 32.9807 39.6279 32.8869C39.5342 32.7931 39.4815 32.666 39.4815 32.5334C39.5015 26.8734 34.8115 21.8734 28.1015 20.3034C27.9689 20.3034 27.8417 20.2507 27.7479 20.1569C27.6542 20.0631 27.6015 19.936 27.6015 19.8034C27.6015 19.6708 27.6542 19.5436 27.7479 19.4498C27.8417 19.356 27.9689 19.3034 28.1015 19.3034L29.6315 13.6234H17.9215L19.1015 19.7234C19.1251 19.8518 19.0976 19.9844 19.0247 20.0928C18.9518 20.2012 18.8394 20.2768 18.7115 20.3034C18.2715 20.3934 7.9015 22.6634 7.9815 32.4834C8.14751 35.7339 9.18361 38.8802 10.9815 41.5934C11.0301 41.6723 11.0557 41.7632 11.0556 41.8559C11.0555 41.9486 11.0296 42.0395 10.9809 42.1183C10.9321 42.1971 10.8624 42.2609 10.7795 42.3024C10.6966 42.3439 10.6038 42.3615 10.5115 42.3534Z" fill="#5627D8"/>
<path d="M23.6617 21.2036C21.7916 21.1951 19.9349 20.8879 18.1617 20.2936C18.0406 20.2459 17.9429 20.1528 17.8893 20.0342C17.8357 19.9156 17.8305 19.7808 17.8748 19.6584C17.9191 19.536 18.0093 19.4356 18.1264 19.3787C18.2434 19.3218 18.3781 19.3128 18.5017 19.3536C18.5517 19.3536 23.7617 21.2236 28.0617 19.3536C28.1837 19.3006 28.3217 19.2982 28.4455 19.3469C28.5693 19.3957 28.6686 19.4916 28.7217 19.6136C28.7747 19.7356 28.7771 19.8737 28.7284 19.9975C28.6796 20.1212 28.5837 20.2206 28.4617 20.2736C26.942 20.9081 25.3084 21.2246 23.6617 21.2036Z" fill="#5627D8"/>
<path d="M23.8316 19.4834C21.9615 19.4749 20.1048 19.1677 18.3316 18.5734C18.2105 18.5257 18.1128 18.4326 18.0592 18.314C18.0056 18.1954 18.0004 18.0605 18.0447 17.9381C18.089 17.8157 18.1792 17.7154 18.2963 17.6585C18.4134 17.6016 18.548 17.5926 18.6716 17.6334C18.7216 17.6334 23.9316 19.5034 28.2316 17.6334C28.3536 17.5804 28.4917 17.5779 28.6154 17.6267C28.7392 17.6755 28.8386 17.7714 28.8916 17.8934C28.9446 18.0154 28.947 18.1535 28.8983 18.2772C28.8495 18.401 28.7536 18.5004 28.6316 18.5534C27.1119 19.1879 25.4783 19.5044 23.8316 19.4834Z" fill="#5627D8"/>
<path d="M49.2415 38.9533C49.1598 38.5946 49.0048 38.2566 48.7862 37.9606C48.5677 37.6647 48.2903 37.417 47.9715 37.2333C47.482 36.9544 46.9179 36.8345 46.3572 36.89C45.7965 36.9456 45.2669 37.1738 44.8415 37.5433C44.7986 37.1168 44.6462 36.7085 44.3992 36.3582C44.1522 36.0078 43.8189 35.7271 43.4315 35.5433C42.9362 35.2881 42.3746 35.1907 41.8223 35.264C41.2699 35.3372 40.7532 35.5778 40.3415 35.9533L38.1015 38.2033C38.1015 38.1333 38.1015 38.0533 38.1015 37.9833C38.0282 37.6605 37.8891 37.3563 37.6929 37.0896C37.4968 36.8229 37.2478 36.5995 36.9615 36.4333C36.5302 36.1829 36.0325 36.0708 35.5354 36.1119C35.0384 36.153 34.5659 36.3455 34.1815 36.6633L26.6915 42.8733C24.1015 42.7881 21.5406 42.2988 19.1015 41.4233C16.7323 40.5437 14.1457 40.4347 11.7108 41.1116C9.27588 41.7886 7.11684 43.2171 5.54154 45.1933C1.22154 50.4133 0.541542 54.9233 0.00154207 61.1933C-0.00707228 61.3028 0.0205745 61.412 0.0802154 61.5042C0.139856 61.5963 0.228176 61.6663 0.331542 61.7033H0.501542C0.584287 61.7043 0.665974 61.6847 0.739277 61.6463C0.81258 61.6079 0.875207 61.5519 0.921542 61.4833C5.27154 54.9633 8.44154 55.7933 13.2515 57.0633C16.4615 57.9033 20.8815 59.3633 24.0215 60.4333C25.0591 60.7902 26.1646 60.9046 27.2533 60.7677C28.3419 60.6307 29.3847 60.2461 30.3015 59.6433L41.1015 52.5933C41.1571 52.5564 41.2047 52.5089 41.2415 52.4533L48.8415 41.0533C49.0498 40.75 49.1929 40.4067 49.2618 40.0453C49.3306 39.6838 49.3237 39.312 49.2415 38.9533ZM41.0015 36.7333C41.2612 36.4995 41.586 36.3504 41.9325 36.3057C42.2791 36.261 42.6311 36.323 42.9415 36.4833C43.1502 36.5883 43.3346 36.7357 43.4831 36.916C43.6316 37.0963 43.7408 37.3056 43.8039 37.5305C43.8669 37.7554 43.8824 37.991 43.8493 38.2222C43.8162 38.4534 43.7352 38.6752 43.6115 38.8733C43.6056 38.9164 43.6056 38.9602 43.6115 39.0033L37.0015 46.3733C36.9893 45.922 36.9153 45.4745 36.7815 45.0433C36.5383 44.0707 35.9388 43.2249 35.1015 42.6733L41.0015 36.7333ZM34.8115 37.4233C35.0389 37.2368 35.318 37.1243 35.6112 37.1011C35.9043 37.0778 36.1976 37.1449 36.4515 37.2933C36.6161 37.3916 36.7591 37.522 36.8723 37.6767C36.9854 37.8313 37.0663 38.0072 37.1102 38.1938C37.154 38.3803 37.1599 38.5738 37.1275 38.7627C37.0951 38.9516 37.0251 39.132 36.9215 39.2933C36.8934 39.3396 36.8731 39.3903 36.8615 39.4433L33.7915 42.5133L33.1915 42.5733C31.5307 42.7515 29.8619 42.845 28.1915 42.8533L34.8115 37.4233ZM48.0315 40.4933L40.4915 51.8033L29.7215 58.8733C28.9312 59.3915 28.0329 59.7221 27.0953 59.84C26.1577 59.9578 25.2055 59.8598 24.3115 59.5533C21.1515 58.4733 16.7015 57.0133 13.4715 56.1633C11.7931 55.6449 10.0562 55.3392 8.30154 55.2533C5.80154 55.2533 3.61154 56.2533 1.14154 59.4733C1.67154 54.2933 2.57154 50.3133 6.28154 45.8733C7.72315 44.0555 9.70262 42.74 11.9369 42.115C14.1712 41.4899 16.5459 41.5874 18.7215 42.3933C24.3515 44.5033 30.6115 43.8933 33.2815 43.6333C33.8215 43.5833 34.2215 43.5433 34.4515 43.5433C34.807 43.7201 35.1161 43.9777 35.3541 44.2955C35.592 44.6133 35.7521 44.9824 35.8215 45.3733C36.0393 45.9066 36.0781 46.4962 35.932 47.0534C35.786 47.6107 35.4629 48.1054 35.0115 48.4633C32.7115 50.0033 21.2115 52.4633 16.9615 49.5833C16.8527 49.5158 16.7221 49.4926 16.5966 49.5185C16.4712 49.5445 16.3604 49.6176 16.2873 49.7228C16.2142 49.828 16.1842 49.9572 16.2036 50.0838C16.223 50.2105 16.2903 50.3248 16.3915 50.4033C21.1315 53.6633 32.9815 51.0233 35.5615 49.2933C35.7278 49.1682 35.8818 49.0275 36.0215 48.8733C36.099 48.8443 36.1678 48.7961 36.2215 48.7333L45.5415 38.2333C45.8087 38.0134 46.1367 37.8802 46.4815 37.8516C46.8264 37.823 47.1718 37.9004 47.4715 38.0733C47.6743 38.1888 47.8509 38.3451 47.9903 38.5322C48.1297 38.7194 48.2288 38.9334 48.2814 39.1607C48.334 39.388 48.339 39.6238 48.296 39.8532C48.253 40.0825 48.1629 40.3005 48.0315 40.4933Z" fill="#5627D8"/>
</svg>
