<svg width="117" height="32" viewBox="0 0 117 32" fill="none" xmlns="http://www.w3.org/2000/svg">
<path d="M0.435 16.65C0.435 13.8347 1.06367 11.32 2.321 9.106C3.60567 6.86466 5.34133 5.129 7.528 3.899C9.742 2.64167 12.2157 2.013 14.949 2.013C18.147 2.013 20.9487 2.833 23.354 4.473C25.7593 6.113 27.4403 8.38167 28.397 11.279H21.796C21.14 9.91233 20.2107 8.88733 19.008 8.204C17.8327 7.52067 16.466 7.179 14.908 7.179C13.2407 7.179 11.751 7.57533 10.439 8.368C9.15433 9.13333 8.143 10.2267 7.405 11.648C6.69433 13.0693 6.339 14.7367 6.339 16.65C6.339 18.536 6.69433 20.2033 7.405 21.652C8.143 23.0733 9.15433 24.1803 10.439 24.973C11.751 25.7383 13.2407 26.121 14.908 26.121C16.466 26.121 17.8327 25.7793 19.008 25.096C20.2107 24.3853 21.14 23.3467 21.796 21.98H28.397C27.4403 24.9047 25.7593 27.187 23.354 28.827C20.976 30.4397 18.1743 31.246 14.949 31.246C12.2157 31.246 9.742 30.631 7.528 29.401C5.34133 28.1437 3.60567 26.408 2.321 24.194C1.06367 21.98 0.435 19.4653 0.435 16.65ZM46.0917 7.958C47.8137 7.958 49.3444 8.34067 50.6837 9.106C52.023 9.844 53.0617 10.951 53.7997 12.427C54.565 13.8757 54.9477 15.625 54.9477 17.675V31H49.2077V18.454C49.2077 16.65 48.7567 15.2697 47.8547 14.313C46.9527 13.329 45.7227 12.837 44.1647 12.837C42.5794 12.837 41.322 13.329 40.3927 14.313C39.4907 15.2697 39.0397 16.65 39.0397 18.454V31H33.2997V0.66H39.0397V11.115C39.7777 10.131 40.7617 9.36567 41.9917 8.819C43.2217 8.245 44.5884 7.958 46.0917 7.958ZM58.9301 19.561C58.9301 17.265 59.3811 15.2287 60.2831 13.452C61.2125 11.6753 62.4561 10.3087 64.0141 9.352C65.5995 8.39533 67.3625 7.917 69.3031 7.917C70.9978 7.917 72.4738 8.25867 73.7311 8.942C75.0158 9.62533 76.0408 10.4863 76.8061 11.525V8.286H82.5871V31H76.8061V27.679C76.0681 28.745 75.0431 29.6333 73.7311 30.344C72.4465 31.0273 70.9568 31.369 69.2621 31.369C67.3488 31.369 65.5995 30.877 64.0141 29.893C62.4561 28.909 61.2125 27.5287 60.2831 25.752C59.3811 23.948 58.9301 21.8843 58.9301 19.561ZM76.8061 19.643C76.8061 18.249 76.5328 17.06 75.9861 16.076C75.4395 15.0647 74.7015 14.2993 73.7721 13.78C72.8428 13.2333 71.8451 12.96 70.7791 12.96C69.7131 12.96 68.7291 13.2197 67.8271 13.739C66.9251 14.2583 66.1871 15.0237 65.6131 16.035C65.0665 17.019 64.7931 18.1943 64.7931 19.561C64.7931 20.9277 65.0665 22.1303 65.6131 23.169C66.1871 24.1803 66.9251 24.9593 67.8271 25.506C68.7565 26.0527 69.7405 26.326 70.7791 26.326C71.8451 26.326 72.8428 26.0663 73.7721 25.547C74.7015 25.0003 75.4395 24.235 75.9861 23.251C76.5328 22.2397 76.8061 21.037 76.8061 19.643ZM93.9333 11.812C94.6713 10.6093 95.6279 9.66633 96.8033 8.983C98.0059 8.29967 99.3726 7.958 100.903 7.958V13.985H99.3863C97.5823 13.985 96.2156 14.4087 95.2863 15.256C94.3843 16.1033 93.9333 17.5793 93.9333 19.684V31H88.1933V8.286H93.9333V11.812ZM111.452 13.001V23.989C111.452 24.7543 111.63 25.3147 111.985 25.67C112.368 25.998 112.997 26.162 113.871 26.162H116.536V31H112.928C108.09 31 105.671 28.6493 105.671 23.948V13.001H102.965V8.286H105.671V2.669H111.452V8.286H116.536V13.001H111.452Z" fill="white"/>
</svg>
