<svg width="480" height="43" viewBox="0 0 480 43" fill="none" xmlns="http://www.w3.org/2000/svg">
<rect width="81" height="33" rx="15" fill="#3A6FF8"/>
<path d="M35.9549 14.25V13.21H38.0349V20.5H36.8849V14.25H35.9549ZM42.601 14.9C43.021 14.9 43.3943 14.99 43.721 15.17C44.0543 15.35 44.3143 15.6167 44.501 15.97C44.6943 16.3233 44.791 16.75 44.791 17.25V20.5H43.661V17.42C43.661 16.9267 43.5376 16.55 43.291 16.29C43.0443 16.0233 42.7076 15.89 42.281 15.89C41.8543 15.89 41.5143 16.0233 41.261 16.29C41.0143 16.55 40.891 16.9267 40.891 17.42V20.5H39.751V13.1H40.891V15.63C41.0843 15.3967 41.3276 15.2167 41.621 15.09C41.921 14.9633 42.2476 14.9 42.601 14.9Z" fill="#E4E4E4"/>
<rect x="91.5" y="0.5" width="85" height="32" rx="14.5" stroke="#31353F"/>
<path d="M128.364 15.01C128.404 14.39 128.641 13.9067 129.074 13.56C129.514 13.2133 130.074 13.04 130.754 13.04C131.221 13.04 131.624 13.1233 131.964 13.29C132.304 13.4567 132.561 13.6833 132.734 13.97C132.908 14.2567 132.994 14.58 132.994 14.94C132.994 15.3533 132.884 15.7067 132.664 16C132.444 16.2933 132.181 16.49 131.874 16.59V16.63C132.268 16.75 132.574 16.97 132.794 17.29C133.014 17.6033 133.124 18.0067 133.124 18.5C133.124 18.8933 133.034 19.2433 132.854 19.55C132.674 19.8567 132.408 20.1 132.054 20.28C131.701 20.4533 131.278 20.54 130.784 20.54C130.064 20.54 129.471 20.3567 129.004 19.99C128.544 19.6167 128.298 19.0833 128.264 18.39H129.364C129.391 18.7433 129.528 19.0333 129.774 19.26C130.021 19.48 130.354 19.59 130.774 19.59C131.181 19.59 131.494 19.48 131.714 19.26C131.934 19.0333 132.044 18.7433 132.044 18.39C132.044 17.9233 131.894 17.5933 131.594 17.4C131.301 17.2 130.848 17.1 130.234 17.1H129.974V16.16H130.244C130.784 16.1533 131.194 16.0633 131.474 15.89C131.761 15.7167 131.904 15.4433 131.904 15.07C131.904 14.75 131.801 14.4967 131.594 14.31C131.388 14.1167 131.094 14.02 130.714 14.02C130.341 14.02 130.051 14.1167 129.844 14.31C129.638 14.4967 129.514 14.73 129.474 15.01H128.364ZM137.322 14.9C137.742 14.9 138.115 14.99 138.442 15.17C138.775 15.35 139.035 15.6167 139.222 15.97C139.415 16.3233 139.512 16.75 139.512 17.25V20.5H138.382V17.42C138.382 16.9267 138.258 16.55 138.012 16.29C137.765 16.0233 137.428 15.89 137.002 15.89C136.575 15.89 136.235 16.0233 135.982 16.29C135.735 16.55 135.612 16.9267 135.612 17.42V20.5H134.472V13.1H135.612V15.63C135.805 15.3967 136.048 15.2167 136.342 15.09C136.642 14.9633 136.968 14.9 137.322 14.9Z" fill="#9E9E9E"/>
<rect x="187.5" y="0.5" width="81" height="32" rx="14.5" stroke="#31353F"/>
<path d="M223.313 14.25V13.21H225.393V20.5H224.243V14.25H223.313ZM226.729 17.72C226.729 17.1667 226.843 16.6767 227.069 16.25C227.303 15.8233 227.616 15.4933 228.009 15.26C228.409 15.02 228.853 14.9 229.339 14.9C229.699 14.9 230.053 14.98 230.399 15.14C230.753 15.2933 231.033 15.5 231.239 15.76V13.1H232.389V20.5H231.239V19.67C231.053 19.9367 230.793 20.1567 230.459 20.33C230.133 20.5033 229.756 20.59 229.329 20.59C228.849 20.59 228.409 20.47 228.009 20.23C227.616 19.9833 227.303 19.6433 227.069 19.21C226.843 18.77 226.729 18.2733 226.729 17.72ZM231.239 17.74C231.239 17.36 231.159 17.03 230.999 16.75C230.846 16.47 230.643 16.2567 230.389 16.11C230.136 15.9633 229.863 15.89 229.569 15.89C229.276 15.89 229.003 15.9633 228.749 16.11C228.496 16.25 228.289 16.46 228.129 16.74C227.976 17.0133 227.899 17.34 227.899 17.72C227.899 18.1 227.976 18.4333 228.129 18.72C228.289 19.0067 228.496 19.2267 228.749 19.38C229.009 19.5267 229.283 19.6 229.569 19.6C229.863 19.6 230.136 19.5267 230.389 19.38C230.643 19.2333 230.846 19.02 230.999 18.74C231.159 18.4533 231.239 18.12 231.239 17.74Z" fill="#9E9E9E"/>
<rect x="279.5" y="0.5" width="84" height="32" rx="14.5" stroke="#31353F"/>
<path d="M316.076 14.25V13.21H318.156V20.5H317.006V14.25H316.076ZM327.272 14.99L325.562 20.5H324.362L323.252 16.43L322.142 20.5H320.942L319.222 14.99H320.382L321.532 19.42L322.702 14.99H323.892L325.012 19.4L326.152 14.99H327.272Z" fill="#9E9E9E"/>
<rect x="374.5" y="0.5" width="88" height="32" rx="14.5" stroke="#31353F"/>
<path d="M412.007 14.25V13.21H414.087V20.5H412.937V14.25H412.007ZM422.473 14.9C422.906 14.9 423.293 14.99 423.633 15.17C423.979 15.35 424.249 15.6167 424.443 15.97C424.643 16.3233 424.743 16.75 424.743 17.25V20.5H423.613V17.42C423.613 16.9267 423.489 16.55 423.243 16.29C422.996 16.0233 422.659 15.89 422.233 15.89C421.806 15.89 421.466 16.0233 421.213 16.29C420.966 16.55 420.843 16.9267 420.843 17.42V20.5H419.713V17.42C419.713 16.9267 419.589 16.55 419.343 16.29C419.096 16.0233 418.759 15.89 418.333 15.89C417.906 15.89 417.566 16.0233 417.313 16.29C417.066 16.55 416.943 16.9267 416.943 17.42V20.5H415.803V14.99H416.943V15.62C417.129 15.3933 417.366 15.2167 417.653 15.09C417.939 14.9633 418.246 14.9 418.573 14.9C419.013 14.9 419.406 14.9933 419.753 15.18C420.099 15.3667 420.366 15.6367 420.553 15.99C420.719 15.6567 420.979 15.3933 421.333 15.2C421.686 15 422.066 14.9 422.473 14.9Z" fill="#9E9E9E"/>
</svg>
